<svg id="visual" viewBox="0 0 450 1600" width="450" height="1600" xmlns="http://www.w3.org/2000/svg" xmlns:xlink="http://www.w3.org/1999/xlink" version="1.1">
    <g>
        <rect x="0" y="0" width="450" height="900" fill="#f3f3f3"></rect>
        <path d="M0 641L10.7 651C21.3 661 42.7 681 64.2 685C85.7 689 107.3 677 128.8 675.5C150.3 674 171.7 683 193 689C214.3 695 235.7 698 257 701.8C278.3 705.7 299.7 710.3 321.2 700.5C342.7 690.7 364.3 666.3 385.8 658.2C407.3 650 428.7 658 439.3 662L450 666L450 901L439.3 901C428.7 901 407.3 901 385.8 901C364.3 901 342.7 901 321.2 901C299.7 901 278.3 901 257 901C235.7 901 214.3 901 193 901C171.7 901 150.3 901 128.8 901C107.3 901 85.7 901 64.2 901C42.7 901 21.3 901 10.7 901L0 901Z" fill="#424B54" stroke-linecap="round" stroke-linejoin="miter"></path>
    </g>
    <g transform="translate(0, 900)" >
        <rect x="0" y="0" width="450" height="200" fill="#424b54"></rect>
    </g>
    <g transform="translate(0, 1100)" >
        <rect x="0" y="0" width="450" height="500" fill="#424b54"></rect>
        <path d="M0 417L22.8 416C45.7 415 91.3 413 137 403.7C182.7 394.3 228.3 377.7 274 378.2C319.7 378.7 365.3 396.3 411.2 404.8C457 413.3 503 412.7 548.8 405.2C594.7 397.7 640.3 383.3 686 382.2C731.7 381 777.3 393 823 404.5C868.7 416 914.3 427 937.2 432.5L960 438L960 541L937.2 541C914.3 541 868.7 541 823 541C777.3 541 731.7 541 686 541C640.3 541 594.7 541 548.8 541C503 541 457 541 411.2 541C365.3 541 319.7 541 274 541C228.3 541 182.7 541 137 541C91.3 541 45.7 541 22.8 541L0 541Z" fill="#F3F3F3" stroke-linecap="round" stroke-linejoin="miter">
        </path>
    </g>
</svg>