<svg id="visual" viewBox="0 0 960 1080" width="960" height="1080" xmlns="http://www.w3.org/2000/svg" xmlns:xlink="http://www.w3.org/1999/xlink" version="1.1">
    <g>
        <rect x="0" y="0" width="960" height="540" fill="#F3F3F3">
        </rect>
        <path d="M0 412L22.8 407.7C45.7 403.3 91.3 394.7 137 397C182.7 399.3 228.3 412.7 274 414.8C319.7 417 365.3 408 411.2 413.7C457 419.3 503 439.7 548.8 433.8C594.7 428 640.3 396 686 382.3C731.7 368.7 777.3 373.3 823 382.5C868.7 391.7 914.3 405.3 937.2 412.2L960 419L960 541L937.2 541C914.3 541 868.7 541 823 541C777.3 541 731.7 541 686 541C640.3 541 594.7 541 548.8 541C503 541 457 541 411.2 541C365.3 541 319.7 541 274 541C228.3 541 182.7 541 137 541C91.3 541 45.7 541 22.8 541L0 541Z" fill="#424b54" stroke-linecap="round" stroke-linejoin="miter">
        </path>
    </g>
    <g transform="translate(0, 540)" >
        <rect x="0" y="0" width="960" height="540" fill="#424b54">
        </rect>
        <path d="M0 417L22.8 416C45.7 415 91.3 413 137 403.7C182.7 394.3 228.3 377.7 274 378.2C319.7 378.7 365.3 396.3 411.2 404.8C457 413.3 503 412.7 548.8 405.2C594.7 397.7 640.3 383.3 686 382.2C731.7 381 777.3 393 823 404.5C868.7 416 914.3 427 937.2 432.5L960 438L960 541L937.2 541C914.3 541 868.7 541 823 541C777.3 541 731.7 541 686 541C640.3 541 594.7 541 548.8 541C503 541 457 541 411.2 541C365.3 541 319.7 541 274 541C228.3 541 182.7 541 137 541C91.3 541 45.7 541 22.8 541L0 541Z" fill="#F3F3F3" stroke-linecap="round" stroke-linejoin="miter">
        </path>
    </g>
</svg>